<svg xmlns="http://www.w3.org/2000/svg" id="Layer_2" data-name="Layer 2" viewBox="0 0 181.16 42.08"><g id="Layer_1-2" data-name="Layer 1"><g><g><path d="M9.3,.3H0S0,26.67,0,26.67H9.3c3.79,0,7.01-1.27,9.58-3.77,2.57-2.5,3.87-5.63,3.87-9.3v-.11c0-3.71-1.32-6.87-3.91-9.39C16.25,1.58,13.04,.3,9.3,.3m6.75,19.84c-1.73,1.77-4,2.66-6.75,2.66H4.17s0-18.63,0-18.63h5.13c2.73,0,4.99,.88,6.73,2.62,1.74,1.74,2.62,3.99,2.62,6.69s-.87,4.89-2.6,6.65"></path><rect x="26.84" y=".34" width="4.21" height="26.29"></rect><polygon points="36.09 26.63 40.22 26.63 40.22 15.32 52.36 15.32 52.36 11.61 40.22 11.61 40.22 4.17 53.88 4.17 53.88 .34 36.09 .34 36.09 26.63"></polygon><path d="M76.18,19.23c-.63,.93-1.42,1.7-2.33,2.3-1.35,.89-2.96,1.34-4.76,1.34-2.63,0-4.84-.92-6.58-2.74-.25-.26-.5-.56-.78-.93-1.22-1.64-1.84-3.58-1.84-5.76,0-2.18,.6-4.11,1.77-5.74,.3-.41,.56-.73,.84-1.03,1.74-1.82,3.96-2.74,6.58-2.74,1.78,0,3.38,.48,4.76,1.42,.92,.63,1.72,1.42,2.36,2.35l3.19-2.48c-.87-1.17-1.93-2.18-3.13-3.02C74.17,.74,71.75,0,69.08,0c-3.69,0-6.87,1.33-9.46,3.94-.39,.4-.78,.83-1.14,1.29-1.84,2.35-2.77,5.11-2.77,8.21s.95,5.9,2.81,8.26c.35,.44,.71,.84,1.09,1.23,2.59,2.6,5.78,3.93,9.46,3.93,2.67,0,5.08-.74,7.19-2.2,1.19-.82,2.22-1.81,3.08-2.95l-3.18-2.48Z"></path></g><path d="M91.34,.19h3.94s0,25.97,0,25.97h13.57s0,.72,0,.72h-15.96s0-25.71,0-25.71l-1.55-.64V.19Z"></path><path d="M110.34,8.11h3.72s0,18.77,0,18.77h-2.16s0-17.82,0-17.82l-1.56-.61v-.34Zm1.18-3.79c0-.43,.14-.78,.42-1.06,.28-.28,.63-.42,1.06-.42,.4,0,.75,.14,1.04,.42,.29,.28,.44,.63,.44,1.06s-.15,.78-.44,1.06c-.29,.28-.64,.42-1.04,.42-.43,0-.78-.14-1.06-.42-.28-.28-.42-.63-.42-1.06Z"></path><path d="M116.98,8.11h3.45s6.07,15.85,6.07,15.85l6.56-15.85h.57s-7.7,18.77-7.7,18.77h-.61s-6.9-17.86-6.9-17.86l-1.44-.57v-.34Z"></path><path d="M134.8,8.11h3.72s0,18.77,0,18.77h-2.16s0-17.82,0-17.82l-1.56-.61v-.34Zm1.18-3.79c0-.43,.14-.78,.42-1.06,.28-.28,.63-.42,1.06-.42,.4,0,.75,.14,1.04,.42,.29,.28,.44,.63,.44,1.06s-.15,.78-.44,1.06c-.29,.28-.64,.42-1.04,.42-.43,0-.78-.14-1.06-.42-.28-.28-.42-.63-.42-1.06Z"></path><path d="M141.47,8.11l3.68-.04v2.5c.68-1.06,1.59-1.84,2.71-2.33,1.12-.49,2.29-.74,3.51-.74,.86,0,1.69,.13,2.5,.38,.81,.25,1.52,.63,2.14,1.12,.62,.49,1.12,1.1,1.5,1.82,.38,.72,.57,1.56,.57,2.52v13.54s-2.2,0-2.2,0V13.34c.02-.96-.1-1.78-.36-2.45-.27-.67-.63-1.21-1.08-1.63s-.98-.73-1.57-.93c-.59-.2-1.21-.3-1.84-.3-.71,0-1.42,.11-2.12,.32s-1.34,.52-1.9,.93c-.56,.4-1,.87-1.35,1.4s-.51,1.13-.51,1.78v14.41s-2.16,0-2.16,0V9.06s-1.52-.61-1.52-.61v-.34Z"></path><path d="M163.58,29.46l.3,.42c-.86,.58-1.5,1.27-1.93,2.07-.43,.8-.65,1.63-.66,2.5-.01,.87,.18,1.73,.59,2.58,.4,.85,1,1.61,1.8,2.29,.8,.68,1.79,1.23,2.98,1.65s2.55,.63,4.1,.63c.23,0,.45,0,.68-.02,.23-.01,.47-.03,.72-.06,.88-.08,1.83-.29,2.83-.64,1-.35,1.9-.87,2.71-1.54,.81-.67,1.43-1.52,1.88-2.54,.44-1.02,.52-2.24,.25-3.66-.18-.99-.58-1.76-1.21-2.33-.63-.57-1.4-1-2.29-1.29s-1.89-.48-2.98-.57c-1.09-.09-2.17-.16-3.26-.21-1.09-.05-2.13-.13-3.13-.23-1-.1-1.88-.29-2.64-.57-.76-.3-1.28-.75-1.55-1.33-.28-.58-.35-1.2-.23-1.86,.13-.66,.46-1.3,.99-1.92,.53-.62,1.23-1.09,2.09-1.42-1.09-.58-1.95-1.31-2.58-2.2-.63-.88-1.04-1.84-1.21-2.86-.18-1.02-.13-2.05,.13-3.07s.76-1.95,1.48-2.77,1.67-1.49,2.84-2.01c1.18-.52,2.57-.78,4.19-.78,.71,0,1.45-.03,2.24-.09,.78-.06,1.56-.18,2.33-.36,.77-.18,1.52-.43,2.26-.76,.73-.33,1.4-.76,2.01-1.29l.64,.15c-.3,.4-.7,.76-1.19,1.06-.49,.3-1.04,.56-1.65,.78s-1.25,.39-1.92,.53-1.33,.23-1.99,.28c1.47,.35,2.66,.95,3.58,1.8,.92,.85,1.59,1.81,1.99,2.88,.4,1.07,.53,2.19,.38,3.34-.15,1.15-.57,2.2-1.25,3.15-.68,.95-1.64,1.73-2.88,2.35-1.24,.62-2.76,.93-4.55,.93-.89,0-1.69-.08-2.41-.23s-1.4-.37-2.03-.64c-.43,.1-.86,.35-1.29,.74-.43,.39-.72,.83-.87,1.31-.15,.48-.11,.95,.13,1.42,.24,.47,.8,.81,1.69,1.04,.76,.18,1.65,.3,2.67,.36,1.02,.06,2.09,.14,3.2,.23s2.21,.23,3.3,.44c1.09,.2,2.07,.52,2.96,.95,.88,.43,1.63,1.04,2.24,1.82s.97,1.8,1.1,3.03c.1,1.09-.04,2.17-.42,3.26-.38,1.09-1,2.07-1.86,2.94-.86,.87-1.95,1.58-3.28,2.12-1.33,.54-2.89,.81-4.68,.81h-.51c-.16,0-.34-.01-.51-.04-2.48-.18-4.44-.78-5.9-1.82-1.45-1.04-2.43-2.22-2.92-3.56-.49-1.34-.52-2.68-.09-4.02,.43-1.34,1.3-2.4,2.62-3.19Zm6.86-7.47c1.36,0,2.5-.34,3.41-1.02,.91-.68,1.59-1.53,2.05-2.54,.46-1.01,.68-2.12,.68-3.32s-.23-2.31-.68-3.32c-.45-1.01-1.14-1.86-2.05-2.54-.91-.68-2.05-1.02-3.41-1.02s-2.51,.34-3.43,1.02c-.92,.68-1.61,1.53-2.07,2.54s-.68,2.12-.68,3.32,.23,2.31,.68,3.32c.46,1.01,1.14,1.86,2.07,2.54,.92,.68,2.07,1.02,3.43,1.02Z"></path></g></g></svg>