<svg xmlns="http://www.w3.org/2000/svg" xmlns:xlink="http://www.w3.org/1999/xlink" id="Layer_2" data-name="Layer 2" viewBox="0 0 1924 305"><defs><style>      .cls-1, .cls-2 {        fill: none;      }      .cls-3 {        fill: url(#Unnamed_Pattern);      }      .cls-4 {        clip-path: url(#clippath);      }      .cls-5 {        fill: #fff;      }      .cls-6 {        clip-path: url(#clippath-1);      }      .cls-2 {        stroke: gray;        stroke-miterlimit: 10;        stroke-width: .95px;      }    </style><clipPath id="clippath"><rect class="cls-1" width="1924" height="305"></rect></clipPath><clipPath id="clippath-1"><rect class="cls-1" width="409.44" height="276.04"></rect></clipPath><pattern id="Unnamed_Pattern" data-name="Unnamed Pattern" x="0" y="0" width="409.44" height="276.04" patternTransform="translate(-21091.96 -23543.74) rotate(-180) scale(2.39 -2.39)" patternUnits="userSpaceOnUse" viewBox="0 0 409.44 276.04"><g><rect class="cls-1" width="409.44" height="276.04"></rect><g class="cls-6"><polyline class="cls-5" points="409.44 0 614.16 -138.02 818.88 -276.04"></polyline><polyline class="cls-2" points="409.44 0 614.16 -138.02 818.88 -276.04"></polyline><polyline class="cls-5" points="0 0 204.72 -138.02 409.44 -276.04"></polyline><polyline class="cls-2" points="0 0 204.72 -138.02 409.44 -276.04"></polyline><polyline class="cls-5" points="15.75 10.62 220.47 -127.4 425.19 -265.42"></polyline><polyline class="cls-2" points="15.75 10.62 220.47 -127.4 425.19 -265.42"></polyline><polyline class="cls-5" points="31.49 21.23 236.22 -116.79 440.93 -254.81"></polyline><polyline class="cls-2" points="31.49 21.23 236.22 -116.79 440.93 -254.81"></polyline><polyline class="cls-5" points="47.24 31.85 251.96 -106.17 456.68 -244.19"></polyline><polyline class="cls-2" points="47.24 31.85 251.96 -106.17 456.68 -244.19"></polyline><polyline class="cls-5" points="62.99 42.47 267.71 -95.55 472.43 -233.57"></polyline><polyline class="cls-2" points="62.99 42.47 267.71 -95.55 472.43 -233.57"></polyline><polyline class="cls-5" points="78.74 53.08 283.46 -84.94 488.18 -222.96"></polyline><polyline class="cls-2" points="78.74 53.08 283.46 -84.94 488.18 -222.96"></polyline><polyline class="cls-5" points="94.49 63.7 299.21 -74.32 503.93 -212.34"></polyline><polyline class="cls-2" points="94.49 63.7 299.21 -74.32 503.93 -212.34"></polyline><polyline class="cls-5" points="110.23 74.32 314.96 -63.7 519.68 -201.72"></polyline><polyline class="cls-2" points="110.23 74.32 314.96 -63.7 519.68 -201.72"></polyline><polyline class="cls-5" points="125.98 84.94 330.7 -53.08 535.42 -191.1"></polyline><polyline class="cls-2" points="125.98 84.94 330.7 -53.08 535.42 -191.1"></polyline><polyline class="cls-5" points="141.73 95.55 346.45 -42.47 551.17 -180.49"></polyline><polyline class="cls-2" points="141.73 95.55 346.45 -42.47 551.17 -180.49"></polyline><polyline class="cls-5" points="157.48 106.17 362.2 -31.85 566.92 -169.87"></polyline><polyline class="cls-2" points="157.48 106.17 362.2 -31.85 566.92 -169.87"></polyline><polyline class="cls-5" points="173.22 116.79 377.95 -21.23 582.67 -159.25"></polyline><polyline class="cls-2" points="173.22 116.79 377.95 -21.23 582.67 -159.25"></polyline><polyline class="cls-5" points="188.97 127.4 393.69 -10.62 598.41 -148.64"></polyline><polyline class="cls-2" points="188.97 127.4 393.69 -10.62 598.41 -148.64"></polyline><polyline class="cls-5" points="204.72 138.02 409.44 0 614.16 -138.02"></polyline><polyline class="cls-2" points="204.72 138.02 409.44 0 614.16 -138.02"></polyline><polyline class="cls-5" points="15.75 -.38 220.47 -138.4 425.19 -276.42"></polyline><polyline class="cls-2" points="15.75 -.38 220.47 -138.4 425.19 -276.42"></polyline><polyline class="cls-5" points="31.49 10.23 236.22 -127.79 440.93 -265.81"></polyline><polyline class="cls-2" points="31.49 10.23 236.22 -127.79 440.93 -265.81"></polyline><polyline class="cls-5" points="47.24 20.85 251.96 -117.17 456.68 -255.19"></polyline><polyline class="cls-2" points="47.24 20.85 251.96 -117.17 456.68 -255.19"></polyline><polyline class="cls-5" points="62.99 31.47 267.71 -106.55 472.43 -244.57"></polyline><polyline class="cls-2" points="62.99 31.47 267.71 -106.55 472.43 -244.57"></polyline><polyline class="cls-5" points="78.74 42.08 283.46 -95.94 488.18 -233.96"></polyline><polyline class="cls-2" points="78.74 42.08 283.46 -95.94 488.18 -233.96"></polyline><polyline class="cls-5" points="94.49 52.7 299.21 -85.32 503.93 -223.34"></polyline><polyline class="cls-2" points="94.49 52.7 299.21 -85.32 503.93 -223.34"></polyline><polyline class="cls-5" points="110.23 63.32 314.96 -74.7 519.68 -212.72"></polyline><polyline class="cls-2" points="110.23 63.32 314.96 -74.7 519.68 -212.72"></polyline><polyline class="cls-5" points="125.98 73.94 330.7 -64.08 535.42 -202.1"></polyline><polyline class="cls-2" points="125.98 73.94 330.7 -64.08 535.42 -202.1"></polyline><polyline class="cls-5" points="141.73 84.55 346.45 -53.47 551.17 -191.49"></polyline><polyline class="cls-2" points="141.73 84.55 346.45 -53.47 551.17 -191.49"></polyline><polyline class="cls-5" points="157.48 95.17 362.2 -42.85 566.92 -180.87"></polyline><polyline class="cls-2" points="157.48 95.17 362.2 -42.85 566.92 -180.87"></polyline><polyline class="cls-5" points="173.22 105.79 377.95 -32.23 582.67 -170.25"></polyline><polyline class="cls-2" points="173.22 105.79 377.95 -32.23 582.67 -170.25"></polyline><polyline class="cls-5" points="188.97 116.4 393.69 -21.62 598.41 -159.64"></polyline><polyline class="cls-2" points="188.97 116.4 393.69 -21.62 598.41 -159.64"></polyline><polyline class="cls-5" points="204.72 127.02 409.44 -11 614.16 -149.02"></polyline><polyline class="cls-2" points="204.72 127.02 409.44 -11 614.16 -149.02"></polyline><polyline class="cls-5" points="-409.44 0 -204.72 -138.02 0 -276.04"></polyline><polyline class="cls-2" points="-409.44 0 -204.72 -138.02 0 -276.04"></polyline><polyline class="cls-5" points="-393.69 10.62 -188.97 -127.4 15.75 -265.42"></polyline><polyline class="cls-2" points="-393.69 10.62 -188.97 -127.4 15.75 -265.42"></polyline><polyline class="cls-5" points="-377.95 21.23 -173.23 -116.79 31.49 -254.81"></polyline><polyline class="cls-2" points="-377.95 21.23 -173.23 -116.79 31.49 -254.81"></polyline><polyline class="cls-5" points="-362.2 31.85 -157.48 -106.17 47.24 -244.19"></polyline><polyline class="cls-2" points="-362.2 31.85 -157.48 -106.17 47.24 -244.19"></polyline><polyline class="cls-5" points="-346.45 42.47 -141.73 -95.55 62.99 -233.57"></polyline><polyline class="cls-2" points="-346.45 42.47 -141.73 -95.55 62.99 -233.57"></polyline><polyline class="cls-5" points="-330.7 53.08 -125.98 -84.94 78.74 -222.96"></polyline><polyline class="cls-2" points="-330.7 53.08 -125.98 -84.94 78.74 -222.96"></polyline><polyline class="cls-5" points="-314.96 63.7 -110.24 -74.32 94.49 -212.34"></polyline><polyline class="cls-2" points="-314.96 63.7 -110.24 -74.32 94.49 -212.34"></polyline><polyline class="cls-5" points="-299.21 74.32 -94.49 -63.7 110.23 -201.72"></polyline><polyline class="cls-2" points="-299.21 74.32 -94.49 -63.7 110.23 -201.72"></polyline><polyline class="cls-5" points="-283.46 84.94 -78.74 -53.08 125.98 -191.1"></polyline><polyline class="cls-2" points="-283.46 84.94 -78.74 -53.08 125.98 -191.1"></polyline><polyline class="cls-5" points="-267.71 95.55 -62.99 -42.47 141.73 -180.49"></polyline><polyline class="cls-2" points="-267.71 95.55 -62.99 -42.47 141.73 -180.49"></polyline><polyline class="cls-5" points="-251.96 106.17 -47.24 -31.85 157.48 -169.87"></polyline><polyline class="cls-2" points="-251.96 106.17 -47.24 -31.85 157.48 -169.87"></polyline><polyline class="cls-5" points="-236.22 116.79 -31.5 -21.23 173.22 -159.25"></polyline><polyline class="cls-2" points="-236.22 116.79 -31.5 -21.23 173.22 -159.25"></polyline><polyline class="cls-5" points="-220.47 127.4 -15.75 -10.62 188.97 -148.64"></polyline><polyline class="cls-2" points="-220.47 127.4 -15.75 -10.62 188.97 -148.64"></polyline><polyline class="cls-5" points="-204.72 138.02 0 0 204.72 -138.02"></polyline><polyline class="cls-2" points="-204.72 138.02 0 0 204.72 -138.02"></polyline><polyline class="cls-5" points="-393.69 -.38 -188.97 -138.4 15.75 -276.42"></polyline><polyline class="cls-2" points="-393.69 -.38 -188.97 -138.4 15.75 -276.42"></polyline><polyline class="cls-5" points="-377.95 10.23 -173.23 -127.79 31.49 -265.81"></polyline><polyline class="cls-2" points="-377.95 10.23 -173.23 -127.79 31.49 -265.81"></polyline><polyline class="cls-5" points="-362.2 20.85 -157.48 -117.17 47.24 -255.19"></polyline><polyline class="cls-2" points="-362.2 20.85 -157.48 -117.17 47.24 -255.19"></polyline><polyline class="cls-5" points="-346.45 31.47 -141.73 -106.55 62.99 -244.57"></polyline><polyline class="cls-2" points="-346.45 31.47 -141.73 -106.55 62.99 -244.57"></polyline><polyline class="cls-5" points="-330.7 42.08 -125.98 -95.94 78.74 -233.96"></polyline><polyline class="cls-2" points="-330.7 42.08 -125.98 -95.94 78.74 -233.96"></polyline><polyline class="cls-5" points="-314.96 52.7 -110.24 -85.32 94.49 -223.34"></polyline><polyline class="cls-2" points="-314.96 52.7 -110.24 -85.32 94.49 -223.34"></polyline><polyline class="cls-5" points="-299.21 63.32 -94.49 -74.7 110.23 -212.72"></polyline><polyline class="cls-2" points="-299.21 63.32 -94.49 -74.7 110.23 -212.72"></polyline><polyline class="cls-5" points="-283.46 73.94 -78.74 -64.08 125.98 -202.1"></polyline><polyline class="cls-2" points="-283.46 73.94 -78.74 -64.08 125.98 -202.1"></polyline><polyline class="cls-5" points="-267.71 84.55 -62.99 -53.47 141.73 -191.49"></polyline><polyline class="cls-2" points="-267.71 84.55 -62.99 -53.47 141.73 -191.49"></polyline><polyline class="cls-5" points="-251.96 95.17 -47.24 -42.85 157.48 -180.87"></polyline><polyline class="cls-2" points="-251.96 95.17 -47.24 -42.85 157.48 -180.87"></polyline><polyline class="cls-5" points="-236.22 105.79 -31.5 -32.23 173.22 -170.25"></polyline><polyline class="cls-2" points="-236.22 105.79 -31.5 -32.23 173.22 -170.25"></polyline><polyline class="cls-5" points="-220.47 116.4 -15.75 -21.62 188.97 -159.64"></polyline><polyline class="cls-2" points="-220.47 116.4 -15.75 -21.62 188.97 -159.64"></polyline><polyline class="cls-5" points="-204.72 127.02 0 -11 204.72 -149.02"></polyline><polyline class="cls-2" points="-204.72 127.02 0 -11 204.72 -149.02"></polyline><polyline class="cls-5" points="204.72 138.02 409.44 0 614.16 -138.02"></polyline><polyline class="cls-2" points="204.72 138.02 409.44 0 614.16 -138.02"></polyline><polyline class="cls-5" points="220.47 148.64 425.19 10.62 629.91 -127.4"></polyline><polyline class="cls-2" points="220.47 148.64 425.19 10.62 629.91 -127.4"></polyline><polyline class="cls-5" points="236.22 159.25 440.94 21.23 645.66 -116.79"></polyline><polyline class="cls-2" points="236.22 159.25 440.94 21.23 645.66 -116.79"></polyline><polyline class="cls-5" points="251.96 169.87 456.68 31.85 661.4 -106.17"></polyline><polyline class="cls-2" points="251.96 169.87 456.68 31.85 661.4 -106.17"></polyline><polyline class="cls-5" points="267.71 180.49 472.43 42.47 677.15 -95.55"></polyline><polyline class="cls-2" points="267.71 180.49 472.43 42.47 677.15 -95.55"></polyline><polyline class="cls-5" points="283.46 191.1 488.18 53.08 692.9 -84.94"></polyline><polyline class="cls-2" points="283.46 191.1 488.18 53.08 692.9 -84.94"></polyline><polyline class="cls-5" points="299.21 201.72 503.93 63.7 708.65 -74.32"></polyline><polyline class="cls-2" points="299.21 201.72 503.93 63.7 708.65 -74.32"></polyline><polyline class="cls-5" points="314.95 212.34 519.68 74.32 724.4 -63.7"></polyline><polyline class="cls-2" points="314.95 212.34 519.68 74.32 724.4 -63.7"></polyline><polyline class="cls-5" points="330.7 222.96 535.42 84.94 740.14 -53.08"></polyline><polyline class="cls-2" points="330.7 222.96 535.42 84.94 740.14 -53.08"></polyline><polyline class="cls-5" points="346.45 233.57 551.17 95.55 755.89 -42.47"></polyline><polyline class="cls-2" points="346.45 233.57 551.17 95.55 755.89 -42.47"></polyline><polyline class="cls-5" points="362.2 244.19 566.92 106.17 771.64 -31.85"></polyline><polyline class="cls-2" points="362.2 244.19 566.92 106.17 771.64 -31.85"></polyline><polyline class="cls-5" points="377.95 254.81 582.67 116.79 787.39 -21.23"></polyline><polyline class="cls-2" points="377.95 254.81 582.67 116.79 787.39 -21.23"></polyline><polyline class="cls-5" points="393.69 265.42 598.41 127.4 803.13 -10.62"></polyline><polyline class="cls-2" points="393.69 265.42 598.41 127.4 803.13 -10.62"></polyline><polyline class="cls-5" points="409.44 276.04 614.16 138.02 818.88 0"></polyline><polyline class="cls-2" points="409.44 276.04 614.16 138.02 818.88 0"></polyline><polyline class="cls-5" points="204.72 127.02 409.44 -11 614.16 -149.02"></polyline><polyline class="cls-2" points="204.72 127.02 409.44 -11 614.16 -149.02"></polyline><polyline class="cls-5" points="220.47 137.64 425.19 -.38 629.91 -138.4"></polyline><polyline class="cls-2" points="220.47 137.64 425.19 -.38 629.91 -138.4"></polyline><polyline class="cls-5" points="236.22 148.25 440.94 10.23 645.66 -127.79"></polyline><polyline class="cls-2" points="236.22 148.25 440.94 10.23 645.66 -127.79"></polyline><polyline class="cls-5" points="251.96 158.87 456.68 20.85 661.4 -117.17"></polyline><polyline class="cls-2" points="251.96 158.87 456.68 20.85 661.4 -117.17"></polyline><polyline class="cls-5" points="267.71 169.49 472.43 31.47 677.15 -106.55"></polyline><polyline class="cls-2" points="267.71 169.49 472.43 31.47 677.15 -106.55"></polyline><polyline class="cls-5" points="283.46 180.1 488.18 42.08 692.9 -95.94"></polyline><polyline class="cls-2" points="283.46 180.1 488.18 42.08 692.9 -95.94"></polyline><polyline class="cls-5" points="299.21 190.72 503.93 52.7 708.65 -85.32"></polyline><polyline class="cls-2" points="299.21 190.72 503.93 52.7 708.65 -85.32"></polyline><polyline class="cls-5" points="314.95 201.34 519.68 63.32 724.4 -74.7"></polyline><polyline class="cls-2" points="314.95 201.34 519.68 63.32 724.4 -74.7"></polyline><polyline class="cls-5" points="330.7 211.96 535.42 73.94 740.14 -64.08"></polyline><polyline class="cls-2" points="330.7 211.96 535.42 73.94 740.14 -64.08"></polyline><polyline class="cls-5" points="346.45 222.57 551.17 84.55 755.89 -53.47"></polyline><polyline class="cls-2" points="346.45 222.57 551.17 84.55 755.89 -53.47"></polyline><polyline class="cls-5" points="362.2 233.19 566.92 95.17 771.64 -42.85"></polyline><polyline class="cls-2" points="362.2 233.19 566.92 95.17 771.64 -42.85"></polyline><polyline class="cls-5" points="377.95 243.81 582.67 105.79 787.39 -32.23"></polyline><polyline class="cls-2" points="377.95 243.81 582.67 105.79 787.39 -32.23"></polyline><polyline class="cls-5" points="393.69 254.42 598.41 116.4 803.13 -21.62"></polyline><polyline class="cls-2" points="393.69 254.42 598.41 116.4 803.13 -21.62"></polyline><polyline class="cls-5" points="409.44 265.04 614.16 127.02 818.88 -11"></polyline><polyline class="cls-2" points="409.44 265.04 614.16 127.02 818.88 -11"></polyline><polyline class="cls-5" points="-204.72 138.02 0 0 204.72 -138.02"></polyline><polyline class="cls-2" points="-204.72 138.02 0 0 204.72 -138.02"></polyline><polyline class="cls-5" points="-188.97 148.64 15.75 10.62 220.47 -127.4"></polyline><polyline class="cls-2" points="-188.97 148.64 15.75 10.62 220.47 -127.4"></polyline><polyline class="cls-5" points="-173.23 159.25 31.5 21.23 236.22 -116.79"></polyline><polyline class="cls-2" points="-173.23 159.25 31.5 21.23 236.22 -116.79"></polyline><polyline class="cls-5" points="-157.48 169.87 47.24 31.85 251.96 -106.17"></polyline><polyline class="cls-2" points="-157.48 169.87 47.24 31.85 251.96 -106.17"></polyline><polyline class="cls-5" points="-141.73 180.49 62.99 42.47 267.71 -95.55"></polyline><polyline class="cls-2" points="-141.73 180.49 62.99 42.47 267.71 -95.55"></polyline><polyline class="cls-5" points="-125.98 191.1 78.74 53.08 283.46 -84.94"></polyline><polyline class="cls-2" points="-125.98 191.1 78.74 53.08 283.46 -84.94"></polyline><polyline class="cls-5" points="-110.23 201.72 94.49 63.7 299.21 -74.32"></polyline><polyline class="cls-2" points="-110.23 201.72 94.49 63.7 299.21 -74.32"></polyline><polyline class="cls-5" points="-94.49 212.34 110.23 74.32 314.96 -63.7"></polyline><polyline class="cls-2" points="-94.49 212.34 110.23 74.32 314.96 -63.7"></polyline><polyline class="cls-5" points="-78.74 222.96 125.98 84.94 330.7 -53.08"></polyline><polyline class="cls-2" points="-78.74 222.96 125.98 84.94 330.7 -53.08"></polyline><polyline class="cls-5" points="-62.99 233.57 141.73 95.55 346.45 -42.47"></polyline><polyline class="cls-2" points="-62.99 233.57 141.73 95.55 346.45 -42.47"></polyline><polyline class="cls-5" points="-47.24 244.19 157.48 106.17 362.2 -31.85"></polyline><polyline class="cls-2" points="-47.24 244.19 157.48 106.17 362.2 -31.85"></polyline><polyline class="cls-5" points="-31.5 254.81 173.22 116.79 377.94 -21.23"></polyline><polyline class="cls-2" points="-31.5 254.81 173.22 116.79 377.94 -21.23"></polyline><polyline class="cls-5" points="-15.75 265.42 188.97 127.4 393.69 -10.62"></polyline><polyline class="cls-2" points="-15.75 265.42 188.97 127.4 393.69 -10.62"></polyline><polyline class="cls-5" points="0 276.04 204.72 138.02 409.44 0"></polyline><polyline class="cls-2" points="0 276.04 204.72 138.02 409.44 0"></polyline><polyline class="cls-5" points="15.75 286.66 220.47 148.64 425.19 10.62"></polyline><polyline class="cls-2" points="15.75 286.66 220.47 148.64 425.19 10.62"></polyline><polyline class="cls-5" points="31.49 297.27 236.22 159.25 440.93 21.23"></polyline><polyline class="cls-2" points="31.49 297.27 236.22 159.25 440.93 21.23"></polyline><polyline class="cls-5" points="47.24 307.89 251.96 169.87 456.68 31.85"></polyline><polyline class="cls-2" points="47.24 307.89 251.96 169.87 456.68 31.85"></polyline><polyline class="cls-5" points="62.99 318.51 267.71 180.49 472.43 42.47"></polyline><polyline class="cls-2" points="62.99 318.51 267.71 180.49 472.43 42.47"></polyline><polyline class="cls-5" points="78.74 329.12 283.46 191.1 488.18 53.08"></polyline><polyline class="cls-2" points="78.74 329.12 283.46 191.1 488.18 53.08"></polyline><polyline class="cls-5" points="94.49 339.74 299.21 201.72 503.93 63.7"></polyline><polyline class="cls-2" points="94.49 339.74 299.21 201.72 503.93 63.7"></polyline><polyline class="cls-5" points="110.23 350.36 314.96 212.34 519.68 74.32"></polyline><polyline class="cls-2" points="110.23 350.36 314.96 212.34 519.68 74.32"></polyline><polyline class="cls-5" points="125.98 360.97 330.7 222.95 535.42 84.93"></polyline><polyline class="cls-2" points="125.98 360.97 330.7 222.95 535.42 84.93"></polyline><polyline class="cls-5" points="141.73 371.59 346.45 233.57 551.17 95.55"></polyline><polyline class="cls-2" points="141.73 371.59 346.45 233.57 551.17 95.55"></polyline><polyline class="cls-5" points="157.48 382.21 362.2 244.19 566.92 106.17"></polyline><polyline class="cls-2" points="157.48 382.21 362.2 244.19 566.92 106.17"></polyline><polyline class="cls-5" points="173.22 392.83 377.95 254.81 582.67 116.79"></polyline><polyline class="cls-2" points="173.22 392.83 377.95 254.81 582.67 116.79"></polyline><polyline class="cls-5" points="188.97 403.44 393.69 265.42 598.41 127.4"></polyline><polyline class="cls-2" points="188.97 403.44 393.69 265.42 598.41 127.4"></polyline><polyline class="cls-5" points="204.72 414.06 409.44 276.04 614.16 138.02"></polyline><polyline class="cls-2" points="204.72 414.06 409.44 276.04 614.16 138.02"></polyline><polyline class="cls-5" points="-204.72 127.02 0 -11 204.72 -149.02"></polyline><polyline class="cls-2" points="-204.72 127.02 0 -11 204.72 -149.02"></polyline><polyline class="cls-5" points="-188.97 137.64 15.75 -.38 220.47 -138.4"></polyline><polyline class="cls-2" points="-188.97 137.64 15.75 -.38 220.47 -138.4"></polyline><polyline class="cls-5" points="-173.23 148.25 31.5 10.23 236.22 -127.79"></polyline><polyline class="cls-2" points="-173.23 148.25 31.5 10.23 236.22 -127.79"></polyline><polyline class="cls-5" points="-157.48 158.87 47.24 20.85 251.96 -117.17"></polyline><polyline class="cls-2" points="-157.48 158.87 47.24 20.85 251.96 -117.17"></polyline><polyline class="cls-5" points="-141.73 169.49 62.99 31.47 267.71 -106.55"></polyline><polyline class="cls-2" points="-141.73 169.49 62.99 31.47 267.71 -106.55"></polyline><polyline class="cls-5" points="-125.98 180.1 78.74 42.08 283.46 -95.94"></polyline><polyline class="cls-2" points="-125.98 180.1 78.74 42.08 283.46 -95.94"></polyline><polyline class="cls-5" points="-110.23 190.72 94.49 52.7 299.21 -85.32"></polyline><polyline class="cls-2" points="-110.23 190.72 94.49 52.7 299.21 -85.32"></polyline><polyline class="cls-5" points="-94.49 201.34 110.23 63.32 314.96 -74.7"></polyline><polyline class="cls-2" points="-94.49 201.34 110.23 63.32 314.96 -74.7"></polyline><polyline class="cls-5" points="-78.74 211.96 125.98 73.94 330.7 -64.08"></polyline><polyline class="cls-2" points="-78.74 211.96 125.98 73.94 330.7 -64.08"></polyline><polyline class="cls-5" points="-62.99 222.57 141.73 84.55 346.45 -53.47"></polyline><polyline class="cls-2" points="-62.99 222.57 141.73 84.55 346.45 -53.47"></polyline><polyline class="cls-5" points="-47.24 233.19 157.48 95.17 362.2 -42.85"></polyline><polyline class="cls-2" points="-47.24 233.19 157.48 95.17 362.2 -42.85"></polyline><polyline class="cls-5" points="-31.5 243.81 173.22 105.79 377.94 -32.23"></polyline><polyline class="cls-2" points="-31.5 243.81 173.22 105.79 377.94 -32.23"></polyline><polyline class="cls-5" points="-15.75 254.42 188.97 116.4 393.69 -21.62"></polyline><polyline class="cls-2" points="-15.75 254.42 188.97 116.4 393.69 -21.62"></polyline><polyline class="cls-5" points="0 265.04 204.72 127.02 409.44 -11"></polyline><polyline class="cls-2" points="0 265.04 204.72 127.02 409.44 -11"></polyline><polyline class="cls-5" points="15.75 275.66 220.47 137.64 425.19 -.38"></polyline><polyline class="cls-2" points="15.75 275.66 220.47 137.64 425.19 -.38"></polyline><polyline class="cls-5" points="31.49 286.27 236.22 148.25 440.93 10.23"></polyline><polyline class="cls-2" points="31.49 286.27 236.22 148.25 440.93 10.23"></polyline><polyline class="cls-5" points="47.24 296.89 251.96 158.87 456.68 20.85"></polyline><polyline class="cls-2" points="47.24 296.89 251.96 158.87 456.68 20.85"></polyline><polyline class="cls-5" points="62.99 307.51 267.71 169.49 472.43 31.47"></polyline><polyline class="cls-2" points="62.99 307.51 267.71 169.49 472.43 31.47"></polyline><polyline class="cls-5" points="78.74 318.12 283.46 180.1 488.18 42.08"></polyline><polyline class="cls-2" points="78.74 318.12 283.46 180.1 488.18 42.08"></polyline><polyline class="cls-5" points="94.49 328.74 299.21 190.72 503.93 52.7"></polyline><polyline class="cls-2" points="94.49 328.74 299.21 190.72 503.93 52.7"></polyline><polyline class="cls-5" points="110.23 339.36 314.96 201.34 519.68 63.32"></polyline><polyline class="cls-2" points="110.23 339.36 314.96 201.34 519.68 63.32"></polyline><polyline class="cls-5" points="125.98 349.97 330.7 211.95 535.42 73.93"></polyline><polyline class="cls-2" points="125.98 349.97 330.7 211.95 535.42 73.93"></polyline><polyline class="cls-5" points="141.73 360.59 346.45 222.57 551.17 84.55"></polyline><polyline class="cls-2" points="141.73 360.59 346.45 222.57 551.17 84.55"></polyline><polyline class="cls-5" points="157.48 371.21 362.2 233.19 566.92 95.17"></polyline><polyline class="cls-2" points="157.48 371.21 362.2 233.19 566.92 95.17"></polyline><polyline class="cls-5" points="173.22 381.83 377.95 243.81 582.67 105.79"></polyline><polyline class="cls-2" points="173.22 381.83 377.95 243.81 582.67 105.79"></polyline><polyline class="cls-5" points="188.97 392.44 393.69 254.42 598.41 116.4"></polyline><polyline class="cls-2" points="188.97 392.44 393.69 254.42 598.41 116.4"></polyline><polyline class="cls-5" points="204.72 403.06 409.44 265.04 614.16 127.02"></polyline><polyline class="cls-2" points="204.72 403.06 409.44 265.04 614.16 127.02"></polyline><polyline class="cls-5" points="-409.44 276.04 -204.72 138.02 0 0"></polyline><polyline class="cls-2" points="-409.44 276.04 -204.72 138.02 0 0"></polyline><polyline class="cls-5" points="-393.69 286.66 -188.97 148.64 15.75 10.62"></polyline><polyline class="cls-2" points="-393.69 286.66 -188.97 148.64 15.75 10.62"></polyline><polyline class="cls-5" points="-377.95 297.27 -173.23 159.25 31.49 21.23"></polyline><polyline class="cls-2" points="-377.95 297.27 -173.23 159.25 31.49 21.23"></polyline><polyline class="cls-5" points="-362.2 307.89 -157.48 169.87 47.24 31.85"></polyline><polyline class="cls-2" points="-362.2 307.89 -157.48 169.87 47.24 31.85"></polyline><polyline class="cls-5" points="-346.45 318.51 -141.73 180.49 62.99 42.47"></polyline><polyline class="cls-2" points="-346.45 318.51 -141.73 180.49 62.99 42.47"></polyline><polyline class="cls-5" points="-330.7 329.12 -125.98 191.1 78.74 53.08"></polyline><polyline class="cls-2" points="-330.7 329.12 -125.98 191.1 78.74 53.08"></polyline><polyline class="cls-5" points="-314.96 339.74 -110.24 201.72 94.49 63.7"></polyline><polyline class="cls-2" points="-314.96 339.74 -110.24 201.72 94.49 63.7"></polyline><polyline class="cls-5" points="-299.21 350.36 -94.49 212.34 110.23 74.32"></polyline><polyline class="cls-2" points="-299.21 350.36 -94.49 212.34 110.23 74.32"></polyline><polyline class="cls-5" points="-283.46 360.97 -78.74 222.95 125.98 84.93"></polyline><polyline class="cls-2" points="-283.46 360.97 -78.74 222.95 125.98 84.93"></polyline><polyline class="cls-5" points="-267.71 371.59 -62.99 233.57 141.73 95.55"></polyline><polyline class="cls-2" points="-267.71 371.59 -62.99 233.57 141.73 95.55"></polyline><polyline class="cls-5" points="-251.96 382.21 -47.24 244.19 157.48 106.17"></polyline><polyline class="cls-2" points="-251.96 382.21 -47.24 244.19 157.48 106.17"></polyline><polyline class="cls-5" points="-236.22 392.83 -31.5 254.81 173.22 116.79"></polyline><polyline class="cls-2" points="-236.22 392.83 -31.5 254.81 173.22 116.79"></polyline><polyline class="cls-5" points="-220.47 403.44 -15.75 265.42 188.97 127.4"></polyline><polyline class="cls-2" points="-220.47 403.44 -15.75 265.42 188.97 127.4"></polyline><polyline class="cls-5" points="-204.72 414.06 0 276.04 204.72 138.02"></polyline><polyline class="cls-2" points="-204.72 414.06 0 276.04 204.72 138.02"></polyline><polyline class="cls-5" points="-409.44 265.04 -204.72 127.02 0 -11"></polyline><polyline class="cls-2" points="-409.44 265.04 -204.72 127.02 0 -11"></polyline><polyline class="cls-5" points="-393.69 275.66 -188.97 137.64 15.75 -.38"></polyline><polyline class="cls-2" points="-393.69 275.66 -188.97 137.64 15.75 -.38"></polyline><polyline class="cls-5" points="-377.95 286.27 -173.23 148.25 31.49 10.23"></polyline><polyline class="cls-2" points="-377.95 286.27 -173.23 148.25 31.49 10.23"></polyline><polyline class="cls-5" points="-362.2 296.89 -157.48 158.87 47.24 20.85"></polyline><polyline class="cls-2" points="-362.2 296.89 -157.48 158.87 47.24 20.85"></polyline><polyline class="cls-5" points="-346.45 307.51 -141.73 169.49 62.99 31.47"></polyline><polyline class="cls-2" points="-346.45 307.51 -141.73 169.49 62.99 31.47"></polyline><polyline class="cls-5" points="-330.7 318.12 -125.98 180.1 78.74 42.08"></polyline><polyline class="cls-2" points="-330.7 318.12 -125.98 180.1 78.74 42.08"></polyline><polyline class="cls-5" points="-314.96 328.74 -110.24 190.72 94.49 52.7"></polyline><polyline class="cls-2" points="-314.96 328.74 -110.24 190.72 94.49 52.7"></polyline><polyline class="cls-5" points="-299.21 339.36 -94.49 201.34 110.23 63.32"></polyline><polyline class="cls-2" points="-299.21 339.36 -94.49 201.34 110.23 63.32"></polyline><polyline class="cls-5" points="-283.46 349.97 -78.74 211.95 125.98 73.93"></polyline><polyline class="cls-2" points="-283.46 349.97 -78.74 211.95 125.98 73.93"></polyline><polyline class="cls-5" points="-267.71 360.59 -62.99 222.57 141.73 84.55"></polyline><polyline class="cls-2" points="-267.71 360.59 -62.99 222.57 141.73 84.55"></polyline><polyline class="cls-5" points="-251.96 371.21 -47.24 233.19 157.48 95.17"></polyline><polyline class="cls-2" points="-251.96 371.21 -47.24 233.19 157.48 95.17"></polyline><polyline class="cls-5" points="-236.22 381.83 -31.5 243.81 173.22 105.79"></polyline><polyline class="cls-2" points="-236.22 381.83 -31.5 243.81 173.22 105.79"></polyline><polyline class="cls-5" points="-220.47 392.44 -15.75 254.42 188.97 116.4"></polyline><polyline class="cls-2" points="-220.47 392.44 -15.75 254.42 188.97 116.4"></polyline><polyline class="cls-5" points="-204.72 403.06 0 265.04 204.72 127.02"></polyline><polyline class="cls-2" points="-204.72 403.06 0 265.04 204.72 127.02"></polyline><polyline class="cls-5" points="204.72 414.06 409.44 276.04 614.16 138.02"></polyline><polyline class="cls-2" points="204.72 414.06 409.44 276.04 614.16 138.02"></polyline><polyline class="cls-5" points="220.47 424.68 425.19 286.66 629.91 148.64"></polyline><polyline class="cls-2" points="220.47 424.68 425.19 286.66 629.91 148.64"></polyline><polyline class="cls-5" points="236.22 435.29 440.94 297.27 645.66 159.25"></polyline><polyline class="cls-2" points="236.22 435.29 440.94 297.27 645.66 159.25"></polyline><polyline class="cls-5" points="251.96 445.91 456.68 307.89 661.4 169.87"></polyline><polyline class="cls-2" points="251.96 445.91 456.68 307.89 661.4 169.87"></polyline><polyline class="cls-5" points="267.71 456.53 472.43 318.51 677.15 180.49"></polyline><polyline class="cls-2" points="267.71 456.53 472.43 318.51 677.15 180.49"></polyline><polyline class="cls-5" points="283.46 467.14 488.18 329.12 692.9 191.1"></polyline><polyline class="cls-2" points="283.46 467.14 488.18 329.12 692.9 191.1"></polyline><polyline class="cls-5" points="299.21 477.76 503.93 339.74 708.65 201.72"></polyline><polyline class="cls-2" points="299.21 477.76 503.93 339.74 708.65 201.72"></polyline><polyline class="cls-5" points="314.95 488.38 519.68 350.36 724.4 212.34"></polyline><polyline class="cls-2" points="314.95 488.38 519.68 350.36 724.4 212.34"></polyline><polyline class="cls-5" points="330.7 498.99 535.42 360.97 740.14 222.96"></polyline><polyline class="cls-2" points="330.7 498.99 535.42 360.97 740.14 222.96"></polyline><polyline class="cls-5" points="346.45 509.61 551.17 371.59 755.89 233.57"></polyline><polyline class="cls-2" points="346.45 509.61 551.17 371.59 755.89 233.57"></polyline><polyline class="cls-5" points="362.2 520.23 566.92 382.21 771.64 244.19"></polyline><polyline class="cls-2" points="362.2 520.23 566.92 382.21 771.64 244.19"></polyline><polyline class="cls-5" points="377.95 530.85 582.67 392.83 787.39 254.81"></polyline><polyline class="cls-2" points="377.95 530.85 582.67 392.83 787.39 254.81"></polyline><polyline class="cls-5" points="393.69 541.46 598.41 403.44 803.13 265.42"></polyline><polyline class="cls-2" points="393.69 541.46 598.41 403.44 803.13 265.42"></polyline><polyline class="cls-5" points="409.44 552.08 614.16 414.06 818.88 276.04"></polyline><polyline class="cls-2" points="409.44 552.08 614.16 414.06 818.88 276.04"></polyline><polyline class="cls-5" points="204.72 403.06 409.44 265.04 614.16 127.02"></polyline><polyline class="cls-2" points="204.72 403.06 409.44 265.04 614.16 127.02"></polyline><polyline class="cls-5" points="220.47 413.68 425.19 275.66 629.91 137.64"></polyline><polyline class="cls-2" points="220.47 413.68 425.19 275.66 629.91 137.64"></polyline><polyline class="cls-5" points="236.22 424.29 440.94 286.27 645.66 148.25"></polyline><polyline class="cls-2" points="236.22 424.29 440.94 286.27 645.66 148.25"></polyline><polyline class="cls-5" points="251.96 434.91 456.68 296.89 661.4 158.87"></polyline><polyline class="cls-2" points="251.96 434.91 456.68 296.89 661.4 158.87"></polyline><polyline class="cls-5" points="267.71 445.53 472.43 307.51 677.15 169.49"></polyline><polyline class="cls-2" points="267.71 445.53 472.43 307.51 677.15 169.49"></polyline><polyline class="cls-5" points="283.46 456.14 488.18 318.12 692.9 180.1"></polyline><polyline class="cls-2" points="283.46 456.14 488.18 318.12 692.9 180.1"></polyline><polyline class="cls-5" points="299.21 466.76 503.93 328.74 708.65 190.72"></polyline><polyline class="cls-2" points="299.21 466.76 503.93 328.74 708.65 190.72"></polyline><polyline class="cls-5" points="314.95 477.38 519.68 339.36 724.4 201.34"></polyline><polyline class="cls-2" points="314.95 477.38 519.68 339.36 724.4 201.34"></polyline><polyline class="cls-5" points="330.7 487.99 535.42 349.97 740.14 211.96"></polyline><polyline class="cls-2" points="330.7 487.99 535.42 349.97 740.14 211.96"></polyline><polyline class="cls-5" points="346.45 498.61 551.17 360.59 755.89 222.57"></polyline><polyline class="cls-2" points="346.45 498.61 551.17 360.59 755.89 222.57"></polyline><polyline class="cls-5" points="362.2 509.23 566.92 371.21 771.64 233.19"></polyline><polyline class="cls-2" points="362.2 509.23 566.92 371.21 771.64 233.19"></polyline><polyline class="cls-5" points="377.95 519.85 582.67 381.83 787.39 243.81"></polyline><polyline class="cls-2" points="377.95 519.85 582.67 381.83 787.39 243.81"></polyline><polyline class="cls-5" points="393.69 530.46 598.41 392.44 803.13 254.42"></polyline><polyline class="cls-2" points="393.69 530.46 598.41 392.44 803.13 254.42"></polyline><polyline class="cls-5" points="409.44 541.08 614.16 403.06 818.88 265.04"></polyline><polyline class="cls-2" points="409.44 541.08 614.16 403.06 818.88 265.04"></polyline><polyline class="cls-5" points="-204.72 414.06 0 276.04 204.72 138.02"></polyline><polyline class="cls-2" points="-204.72 414.06 0 276.04 204.72 138.02"></polyline><polyline class="cls-5" points="-188.97 424.68 15.75 286.66 220.47 148.64"></polyline><polyline class="cls-2" points="-188.97 424.68 15.75 286.66 220.47 148.64"></polyline><polyline class="cls-5" points="-173.23 435.29 31.5 297.27 236.22 159.25"></polyline><polyline class="cls-2" points="-173.23 435.29 31.5 297.27 236.22 159.25"></polyline><polyline class="cls-5" points="-157.48 445.91 47.24 307.89 251.96 169.87"></polyline><polyline class="cls-2" points="-157.48 445.91 47.24 307.89 251.96 169.87"></polyline><polyline class="cls-5" points="-141.73 456.53 62.99 318.51 267.71 180.49"></polyline><polyline class="cls-2" points="-141.73 456.53 62.99 318.51 267.71 180.49"></polyline><polyline class="cls-5" points="-125.98 467.14 78.74 329.12 283.46 191.1"></polyline><polyline class="cls-2" points="-125.98 467.14 78.74 329.12 283.46 191.1"></polyline><polyline class="cls-5" points="-110.23 477.76 94.49 339.74 299.21 201.72"></polyline><polyline class="cls-2" points="-110.23 477.76 94.49 339.74 299.21 201.72"></polyline><polyline class="cls-5" points="-94.49 488.38 110.23 350.36 314.96 212.34"></polyline><polyline class="cls-2" points="-94.49 488.38 110.23 350.36 314.96 212.34"></polyline><polyline class="cls-5" points="-78.74 498.99 125.98 360.97 330.7 222.96"></polyline><polyline class="cls-2" points="-78.74 498.99 125.98 360.97 330.7 222.96"></polyline><polyline class="cls-5" points="-62.99 509.61 141.73 371.59 346.45 233.57"></polyline><polyline class="cls-2" points="-62.99 509.61 141.73 371.59 346.45 233.57"></polyline><polyline class="cls-5" points="-47.24 520.23 157.48 382.21 362.2 244.19"></polyline><polyline class="cls-2" points="-47.24 520.23 157.48 382.21 362.2 244.19"></polyline><polyline class="cls-5" points="-31.5 530.85 173.22 392.83 377.94 254.81"></polyline><polyline class="cls-2" points="-31.5 530.85 173.22 392.83 377.94 254.81"></polyline><polyline class="cls-5" points="-15.75 541.46 188.97 403.44 393.69 265.42"></polyline><polyline class="cls-2" points="-15.75 541.46 188.97 403.44 393.69 265.42"></polyline><polyline class="cls-5" points="0 552.08 204.72 414.06 409.44 276.04"></polyline><polyline class="cls-2" points="0 552.08 204.72 414.06 409.44 276.04"></polyline><polyline class="cls-5" points="-204.72 403.06 0 265.04 204.72 127.02"></polyline><polyline class="cls-2" points="-204.72 403.06 0 265.04 204.72 127.02"></polyline><polyline class="cls-5" points="-188.97 413.68 15.75 275.66 220.47 137.64"></polyline><polyline class="cls-2" points="-188.97 413.68 15.75 275.66 220.47 137.64"></polyline><polyline class="cls-5" points="-173.23 424.29 31.5 286.27 236.22 148.25"></polyline><polyline class="cls-2" points="-173.23 424.29 31.5 286.27 236.22 148.25"></polyline><polyline class="cls-5" points="-157.48 434.91 47.24 296.89 251.96 158.87"></polyline><polyline class="cls-2" points="-157.48 434.91 47.24 296.89 251.96 158.87"></polyline><polyline class="cls-5" points="-141.73 445.53 62.99 307.51 267.71 169.49"></polyline><polyline class="cls-2" points="-141.73 445.53 62.99 307.51 267.71 169.49"></polyline><polyline class="cls-5" points="-125.98 456.14 78.74 318.12 283.46 180.1"></polyline><polyline class="cls-2" points="-125.98 456.14 78.74 318.12 283.46 180.1"></polyline><polyline class="cls-5" points="-110.23 466.76 94.49 328.74 299.21 190.72"></polyline><polyline class="cls-2" points="-110.23 466.76 94.49 328.74 299.21 190.72"></polyline><polyline class="cls-5" points="-94.49 477.38 110.23 339.36 314.96 201.34"></polyline><polyline class="cls-2" points="-94.49 477.38 110.23 339.36 314.96 201.34"></polyline><polyline class="cls-5" points="-78.74 487.99 125.98 349.97 330.7 211.96"></polyline><polyline class="cls-2" points="-78.74 487.99 125.98 349.97 330.7 211.96"></polyline><polyline class="cls-5" points="-62.99 498.61 141.73 360.59 346.45 222.57"></polyline><polyline class="cls-2" points="-62.99 498.61 141.73 360.59 346.45 222.57"></polyline><polyline class="cls-5" points="-47.24 509.23 157.48 371.21 362.2 233.19"></polyline><polyline class="cls-2" points="-47.24 509.23 157.48 371.21 362.2 233.19"></polyline><polyline class="cls-5" points="-31.5 519.85 173.22 381.83 377.94 243.81"></polyline><polyline class="cls-2" points="-31.5 519.85 173.22 381.83 377.94 243.81"></polyline><polyline class="cls-5" points="-15.75 530.46 188.97 392.44 393.69 254.42"></polyline><polyline class="cls-2" points="-15.75 530.46 188.97 392.44 393.69 254.42"></polyline><polyline class="cls-5" points="0 541.08 204.72 403.06 409.44 265.04"></polyline><polyline class="cls-2" points="0 541.08 204.72 403.06 409.44 265.04"></polyline><polyline class="cls-5" points="15.75 551.7 220.47 413.68 425.19 275.66"></polyline><polyline class="cls-2" points="15.75 551.7 220.47 413.68 425.19 275.66"></polyline><polyline class="cls-5" points="-409.44 552.08 -204.72 414.06 0 276.04"></polyline><polyline class="cls-2" points="-409.44 552.08 -204.72 414.06 0 276.04"></polyline><polyline class="cls-5" points="-409.44 541.08 -204.72 403.06 0 265.04"></polyline><polyline class="cls-2" points="-409.44 541.08 -204.72 403.06 0 265.04"></polyline><polyline class="cls-5" points="-393.69 551.7 -188.97 413.68 15.75 275.66"></polyline><polyline class="cls-2" points="-393.69 551.7 -188.97 413.68 15.75 275.66"></polyline></g></g></pattern></defs><g id="Layer_1-2" data-name="Layer 1"><g class="cls-4"><g><rect class="cls-3" x="4.51" y="-445.48" width="1916.99" height="740.98"></rect><polygon class="cls-5" points="3 -522.16 3 174.07 62.69 226.45 1863.31 226.45 1923 174.07 1923 -522.16 3 -522.16"></polygon></g></g></g></svg>